<svg aria-hidden="true" width="initial" height="initial" style="position: absolute; width: 0; height: 0; overflow: hidden;" version="1.1" xmlns="http://www.w3.org/2000/svg" xmlns:xlink="http://www.w3.org/1999/xlink">
	<defs>
		<symbol id="icon-logo-mob" viewBox="0 0 32 32">
			<path fill="#f6f6f6" style="fill: var(--color3, #f6f6f6)" d="M0 0l16.343 16.171 15.657 15.829v-32h-32z">
			</path>
			<path fill="#f6f6f6" style="fill: var(--color3, #f6f6f6)" d="M4.457 4.229l11.943 11.829 11.257 11.486h-23.2v-23.314z">
			</path>
			<path fill="#4f2ee8" style="fill: var(--color2, #4f2ee8)" d="M27.733 27.618l-11.943-11.829-11.257-11.486h23.2v23.314z">
			</path>
			<path fill="#4f2ee8" style="fill: var(--color2, #4f2ee8)" d="M9.257 9.029l13.6 13.6h-13.6v-13.6z">
			</path>
			<path fill="#f6f6f6" style="fill: var(--color3, #f6f6f6)" d="M9.257 9.029l13.6 13.6v-13.6h-13.6z">
			</path>
		</symbol>
		<symbol id="icon-logotext" viewBox="0 0 176 32">
			<path d="M22.176 8.533c0-4.731-3.497-7.406-9.545-7.406h-12.631v29.417h13.33c6.089 0 9.998-2.921 9.998-8.599 0-4.402-2.633-6.665-5.719-7.2v-0.082c2.427-0.823 4.567-2.51 4.567-6.13zM4.896 13.305v-8.023h7.858c2.921 0 4.526 1.44 4.526 4.032s-1.317 3.991-4.814 3.991h-7.57zM4.896 16.967h8.599c3.086 0 4.937 1.687 4.937 4.69 0 2.757-1.275 4.731-5.472 4.731h-8.064v-9.422z">
			</path>
			<path d="M35.89 31.161c-6.583 0-10.574-4.567-10.574-11.109s3.991-11.109 10.574-11.109c6.583 0 10.574 4.567 10.574 11.109s-3.991 11.109-10.574 11.109zM35.89 27.623c4.114 0 6.254-3.25 6.254-7.57 0-4.361-2.139-7.57-6.254-7.57s-6.254 3.209-6.254 7.57c0 4.32 2.139 7.57 6.254 7.57z">
			</path>
			<path d="M58.912 31.161c-6.583 0-10.574-4.567-10.574-11.109s3.991-11.109 10.574-11.109c6.583 0 10.574 4.567 10.574 11.109s-3.991 11.109-10.574 11.109zM58.912 27.623c4.114 0 6.254-3.25 6.254-7.57 0-4.361-2.139-7.57-6.254-7.57s-6.254 3.209-6.254 7.57c0 4.32 2.139 7.57 6.254 7.57z">
			</path>
			<path d="M72.472 1.127v29.417h4.32v-7.611l2.921-2.757 6.624 10.368h5.184l-8.846-13.207 7.982-7.817h-5.307l-8.558 8.434v-16.827h-4.32z">
			</path>
			<path d="M101.935 17.831c-3.045-0.699-5.39-0.864-5.39-3.003 0-1.481 1.399-2.469 3.991-2.469 3.374 0 4.197 1.687 4.485 3.333h4.197c-0.288-3.662-3.003-6.747-8.722-6.747-5.266 0-8.311 2.757-8.311 6.213 0 4.773 4.526 5.431 7.858 6.213 3.086 0.741 5.595 0.946 5.595 3.579 0 1.317-1.275 2.798-4.279 2.798-4.443 0-5.431-1.934-5.637-4.197h-4.197c0.206 4.443 3.127 7.611 9.915 7.611 5.102 0 8.558-2.51 8.558-6.542 0-5.019-4.197-5.883-8.064-6.789z">
			</path>
			<path d="M124.123 8.944c-3.538 0-5.719 1.646-6.83 3.291h-0.082v-11.109h-4.32v29.417h4.32v-12.795c0-3.127 2.263-5.143 5.431-5.143 3.003 0 4.197 1.81 4.197 4.649v13.289h4.361v-14.523c0-4.814-3.086-7.077-7.077-7.077z">
			</path>
			<path d="M144.448 27.623c-3.826 0-6.089-2.921-6.089-6.459h16.128c0-7.488-3.333-12.219-10.121-12.219-6.336 0-10.327 4.279-10.327 11.109 0 6.583 3.991 11.109 10.533 11.109 5.39 0 8.517-3.045 9.586-7.035h-4.32c-0.37 1.275-1.81 3.497-5.39 3.497zM144.366 12.359c3.497 0 5.801 2.345 5.801 5.595h-11.808c0-3.25 2.51-5.595 6.007-5.595z">
			</path>
			<path d="M157.531 1.127v29.417h4.361v-29.417h-4.361z">
			</path>
			<path d="M176.003 4.665v-3.538c-0.864-0.165-1.81-0.288-2.88-0.288-3.456 0-5.349 1.563-5.349 6.007v2.674h-3.003v3.538h3.003v17.486h4.361v-17.486h3.867v-3.538h-3.867v-2.304c0-2.386 1.070-2.674 3.867-2.551z">
			</path>
		</symbol>
		<symbol id="icon-close-modal" viewBox="0 0 32 32">
			<path stroke-linejoin="round" stroke-linecap="round" stroke-miterlimit="4" stroke-width="5" d="M28 4l-24 24M4 4l24 24">
			</path>
		</symbol>
		<symbol id="icon-Vector-down1-1" viewBox="0 0 32 32">
			<path fill="#4F2EE8" style="fill: var(--color1, #4F2EE8)" d="M15.055 17.868c0.241 0.243 0.576 0.394 0.945 0.394s0.704-0.15 0.945-0.393l0-0 6.109-6.121c0.241-0.243 0.576-0.393 0.945-0.393 0.736 0 1.333 0.597 1.333 1.333 0 0.367-0.148 0.699-0.388 0.94l-6.119 6.121c-0.724 0.723-1.723 1.169-2.826 1.169s-2.103-0.447-2.826-1.169l-6.121-6.121c-0.239-0.241-0.387-0.573-0.387-0.94 0-0.737 0.597-1.334 1.334-1.334 0.37 0 0.705 0.151 0.947 0.394l0 0 6.106 6.119z">
			</path>
		</symbol>
		<symbol id="icon-Vector-up1-1" viewBox="0 0 32 32">
			<path fill="#4F2EE8" style="fill: var(--color1, #4F2EE8)" d="M15.055 14.134c0.242-0.243 0.576-0.393 0.945-0.393s0.704 0.15 0.945 0.393l0 0 6.109 6.119c0.241 0.243 0.576 0.393 0.945 0.393 0.736 0 1.333-0.597 1.333-1.333 0-0.367-0.148-0.699-0.388-0.94l-6.119-6.121c-0.724-0.723-1.723-1.169-2.826-1.169s-2.103 0.447-2.826 1.169l-6.121 6.121c-0.239 0.241-0.387 0.573-0.387 0.94 0 0.737 0.597 1.334 1.334 1.334 0.37 0 0.705-0.151 0.947-0.394l0-0 6.106-6.119z">
			</path>
		</symbol>
		<symbol id="icon-Vector-scroll" viewBox="0 0 32 32">
			<path d="M4.5 19.6l11.2-11.233c0.133-0.133 0.278-0.228 0.433-0.283s0.322-0.084 0.5-0.084 0.344 0.028 0.5 0.084c0.156 0.055 0.3 0.149 0.433 0.283l11.233 11.233c0.311 0.311 0.467 0.7 0.467 1.167s-0.167 0.867-0.5 1.2c-0.333 0.333-0.722 0.5-1.167 0.5s-0.833-0.167-1.167-0.5l-9.8-9.8-9.8 9.8c-0.311 0.311-0.694 0.467-1.149 0.467s-0.851-0.167-1.184-0.5-0.5-0.722-0.5-1.167c0-0.444 0.167-0.833 0.5-1.167z">
			</path>
		</symbol>
		<symbol id="icon-burger-menu-close" viewBox="0 0 32 32">
			<path stroke-linejoin="round" stroke-linecap="round" stroke-miterlimit="4" stroke-width="3.4286" d="M24 8l-16 16M8 8l16 16">
			</path>
		</symbol>
		<symbol id="icon-burger-menu-open" viewBox="0 0 32 32">
			<path stroke-linejoin="round" stroke-linecap="round" stroke-miterlimit="4" stroke-width="2.2857" d="M22.667 13.333h-18.667">
			</path>
			<path stroke-linejoin="round" stroke-linecap="round" stroke-miterlimit="4" stroke-width="2.2857" d="M28 8h-24">
			</path>
			<path stroke-linejoin="round" stroke-linecap="round" stroke-miterlimit="4" stroke-width="2.2857" d="M28 18.667h-24">
			</path>
			<path stroke-linejoin="round" stroke-linecap="round" stroke-miterlimit="4" stroke-width="2.2857" d="M22.667 24h-18.667">
			</path>
		</symbol>
		<symbol id="icon-header-shopping" viewBox="0 0 32 32">
			<path d="M25.333 9.333h-4v-1.333c0-1.414-0.562-2.771-1.562-3.771s-2.357-1.562-3.771-1.562c-1.414 0-2.771 0.562-3.771 1.562s-1.562 2.357-1.562 3.771v1.333h-4c-0.354 0-0.693 0.14-0.943 0.391s-0.391 0.589-0.391 0.943v14.667c0 1.061 0.421 2.078 1.172 2.828s1.768 1.172 2.828 1.172h13.333c1.061 0 2.078-0.421 2.828-1.172s1.172-1.768 1.172-2.828v-14.667c0-0.354-0.14-0.693-0.391-0.943s-0.589-0.391-0.943-0.391zM13.333 8c0-0.707 0.281-1.386 0.781-1.886s1.178-0.781 1.886-0.781c0.707 0 1.385 0.281 1.886 0.781s0.781 1.178 0.781 1.886v1.333h-5.333v-1.333zM24 25.333c0 0.354-0.14 0.693-0.391 0.943s-0.589 0.39-0.943 0.39h-13.333c-0.354 0-0.693-0.14-0.943-0.39s-0.391-0.589-0.391-0.943v-13.333h2.667v1.333c0 0.354 0.14 0.693 0.391 0.943s0.589 0.391 0.943 0.391c0.354 0 0.693-0.14 0.943-0.391s0.391-0.589 0.391-0.943v-1.333h5.333v1.333c0 0.354 0.14 0.693 0.39 0.943s0.589 0.391 0.943 0.391 0.693-0.14 0.943-0.391c0.25-0.25 0.391-0.589 0.391-0.943v-1.333h2.667v13.333z">
			</path>
		</symbol>
		<symbol id="icon-delete-shoppinglist" viewBox="0 0 32 32">
			<path fill="none" stroke="#fff" style="stroke: var(--color1, #fff)" stroke-linejoin="round" stroke-linecap="round" stroke-miterlimit="4" stroke-width="2.2857" d="M11.429 2.286h9.143M2.286 6.857h27.429M26.667 6.857l-1.069 16.029c-0.16 2.405-0.24 3.607-0.76 4.519-0.457 0.803-1.147 1.448-1.979 1.851-0.944 0.458-2.149 0.458-4.56 0.458h-4.6c-2.41 0-3.615 0-4.56-0.458-0.831-0.403-1.521-1.048-1.978-1.851-0.519-0.912-0.6-2.114-0.76-4.519l-1.069-16.029M12.952 13.714v7.619M19.048 13.714v7.619"></path>
		</symbol>
		</defs>
	</svg>